<svg id="Layer_1" data-name="Layer 1" viewBox="0 0 367 379">
  <title>MCC Logo</title>
  <g>
    <text transform="matrix(0.78, -0.62, 0.62, 0.78, 68.39, 54)" style="font-size: 14px;fill: #231f20;font-family: Arial-Black, Arial Black">M</text>
    <text transform="matrix(0.81, -0.58, 0.58, 0.81, 78.62, 46.05)" style="font-size: 14px;fill: #231f20;font-family: Arial-Black, Arial Black"> </text>
    <text transform="translate(82 43) rotate(-34)" style="font-size: 14px;fill: #231f20;font-family: Arial-Black, Arial Black"> </text>
    <text transform="translate(86 41) rotate(-33)" style="font-size: 14px;fill: #231f20;font-family: Arial-Black, Arial Black"> </text>
    <text transform="translate(90 38) rotate(-31)" style="font-size: 14px;fill: #231f20;font-family: Arial-Black, Arial Black">I</text>
    <text transform="matrix(0.87, -0.49, 0.49, 0.87, 94.45, 35.69)" style="font-size: 14px;fill: #231f20;font-family: Arial-Black, Arial Black"> </text>
    <text transform="matrix(0.88, -0.47, 0.47, 0.88, 98.42, 33.46)" style="font-size: 14px;fill: #231f20;font-family: Arial-Black, Arial Black"> </text>
    <text transform="matrix(0.9, -0.44, 0.44, 0.9, 102.43, 31.33)" style="font-size: 14px;fill: #231f20;font-family: Arial-Black, Arial Black"> </text>
    <text transform="translate(106 29) rotate(-24)" style="font-size: 14px;fill: #231f20;font-family: Arial-Black, Arial Black">L</text>
    <text transform="matrix(0.93, -0.37, 0.37, 0.93, 114.77, 25.6)" style="font-size: 14px;fill: #231f20;font-family: Arial-Black, Arial Black"> </text>
    <text transform="matrix(0.94, -0.35, 0.35, 0.94, 118.99, 23.9)" style="font-size: 14px;fill: #231f20;font-family: Arial-Black, Arial Black"> </text>
    <text transform="matrix(0.95, -0.33, 0.33, 0.95, 123.22, 22.31)" style="font-size: 14px;fill: #231f20;font-family: Arial-Black, Arial Black"> </text>
    <text transform="matrix(0.96, -0.29, 0.29, 0.96, 127.43, 20.81)" style="font-size: 14px;fill: #231f20;font-family: Arial-Black, Arial Black">E</text>
    <text transform="matrix(0.97, -0.25, 0.25, 0.97, 136.93, 18.02)" style="font-size: 14px;fill: #231f20;font-family: Arial-Black, Arial Black"> </text>
    <text transform="translate(141 17) rotate(-13)" style="font-size: 14px;fill: #231f20;font-family: Arial-Black, Arial Black"> </text>
    <text transform="translate(146 16) rotate(-11)" style="font-size: 14px;fill: #231f20;font-family: Arial-Black, Arial Black"> </text>
    <text transform="translate(150 15) rotate(-9)" style="font-size: 14px;fill: #231f20;font-family: Arial-Black, Arial Black">S</text>
    <text transform="translate(160 13) rotate(-7)" style="font-size: 14px;fill: #231f20;font-family: Arial-Black, Arial Black"> </text>
    <text transform="matrix(1, -0.09, 0.09, 1, 164.45, 12.93)" style="font-size: 14px;fill: #231f20;font-family: Arial-Black, Arial Black"> </text>
    <text transform="translate(169 13) rotate(-4)" style="font-size: 14px;fill: #231f20;font-family: Arial-Black, Arial Black"> </text>
    <text transform="translate(174 12) rotate(-2)" style="font-size: 14px;fill: #231f20;font-family: Arial-Black, Arial Black"> </text>
    <text transform="translate(178 12) rotate(-1)" style="font-size: 14px;fill: #231f20;font-family: Arial-Black, Arial Black"> </text>
    <text transform="translate(183 12) rotate(1)" style="font-size: 14px;fill: #231f20;font-family: Arial-Black, Arial Black"> </text>
    <text transform="translate(187 12) rotate(2)" style="font-size: 14px;fill: #231f20;font-family: Arial-Black, Arial Black"> </text>
    <text transform="translate(192 12) rotate(5)" style="font-size: 14px;fill: #231f20;font-family: Arial-Black, Arial Black">C</text>
    <text transform="translate(202 13) rotate(7)" style="font-size: 14px;fill: #231f20;font-family: Arial-Black, Arial Black"> </text>
    <text transform="translate(207 14) rotate(8)" style="font-size: 14px;fill: #231f20;font-family: Arial-Black, Arial Black"> </text>
    <text transform="matrix(0.99, 0.17, -0.17, 0.99, 211.21, 14.24)" style="font-size: 14px;fill: #231f20;font-family: Arial-Black, Arial Black"> </text>
    <text transform="translate(216 15) rotate(12)" style="font-size: 14px;fill: #231f20;font-family: Arial-Black, Arial Black">A</text>
    <text transform="matrix(0.97, 0.26, -0.26, 0.97, 226.02, 17.29)" style="font-size: 14px;fill: #231f20;font-family: Arial-Black, Arial Black"> </text>
    <text transform="matrix(0.96, 0.28, -0.28, 0.96, 230.41, 18.46)" style="font-size: 14px;fill: #231f20;font-family: Arial-Black, Arial Black"> </text>
    <text transform="translate(235 20) rotate(18)" style="font-size: 14px;fill: #231f20;font-family: Arial-Black, Arial Black"> </text>
    <text transform="translate(239 21) rotate(20)" style="font-size: 14px;fill: #231f20;font-family: Arial-Black, Arial Black">R</text>
    <text transform="translate(249 25) rotate(23)" style="font-size: 14px;fill: #231f20;font-family: Arial-Black, Arial Black"> </text>
    <text transform="matrix(0.91, 0.41, -0.41, 0.91, 253.19, 26.55)" style="font-size: 14px;fill: #231f20;font-family: Arial-Black, Arial Black"> </text>
    <text transform="translate(257 28) rotate(26)" style="font-size: 14px;fill: #231f20;font-family: Arial-Black, Arial Black"> </text>
    <text transform="translate(261 30) rotate(28)" style="font-size: 14px;fill: #231f20;font-family: Arial-Black, Arial Black">T</text>
    <text transform="matrix(0.86, 0.51, -0.51, 0.86, 270.09, 35)" style="font-size: 14px;fill: #231f20;font-family: Arial-Black, Arial Black"> </text>
    <text transform="translate(274 37) rotate(32)" style="font-size: 14px;fill: #231f20;font-family: Arial-Black, Arial Black"> </text>
    <text transform="translate(278 40) rotate(33)" style="font-size: 14px;fill: #231f20;font-family: Arial-Black, Arial Black"> </text>
    <text transform="translate(282 42) rotate(36)" style="font-size: 14px;fill: #231f20;font-family: Arial-Black, Arial Black">E</text>
    <text transform="matrix(0.79, 0.62, -0.62, 0.79, 289.66, 47.94)" style="font-size: 14px;fill: #231f20;font-family: Arial-Black, Arial Black"> </text>
    <text transform="translate(293 51) rotate(39)" style="font-size: 14px;fill: #231f20;font-family: Arial-Black, Arial Black"> </text>
    <text transform="translate(297 53) rotate(42)" style="font-size: 14px;fill: #231f20;font-family: Arial-Black, Arial Black">R</text>
    <text transform="matrix(0.86, 0.52, -0.52, 0.86, 82.27, 345.67)" style="font-size: 14px;fill: #231f20;font-family: Arial-Black, Arial Black">C</text>
    <text transform="matrix(0.88, 0.48, -0.48, 0.88, 91.82, 351.33)" style="font-size: 14px;fill: #231f20;font-family: Arial-Black, Arial Black"> </text>
    <text transform="translate(96 354) rotate(27)" style="font-size: 14px;fill: #231f20;font-family: Arial-Black, Arial Black"> </text>
    <text transform="translate(100 356) rotate(26)" style="font-size: 14px;fill: #231f20;font-family: Arial-Black, Arial Black"> </text>
    <text transform="translate(105 358) rotate(23)" style="font-size: 14px;fill: #231f20;font-family: Arial-Black, Arial Black">O</text>
    <text transform="matrix(0.94, 0.35, -0.35, 0.94, 115.68, 362.56)" style="font-size: 14px;fill: #231f20;font-family: Arial-Black, Arial Black"> </text>
    <text transform="matrix(0.95, 0.32, -0.32, 0.95, 120.17, 364.22)" style="font-size: 14px;fill: #231f20;font-family: Arial-Black, Arial Black"> </text>
    <text transform="translate(125 366) rotate(17)" style="font-size: 14px;fill: #231f20;font-family: Arial-Black, Arial Black"> </text>
    <text transform="translate(129 367) rotate(15)" style="font-size: 14px;fill: #231f20;font-family: Arial-Black, Arial Black">L</text>
    <text transform="translate(139 370) rotate(13)" style="font-size: 14px;fill: #231f20;font-family: Arial-Black, Arial Black"> </text>
    <text transform="translate(143 371) rotate(11)" style="font-size: 14px;fill: #231f20;font-family: Arial-Black, Arial Black"> </text>
    <text transform="translate(148 372) rotate(10)" style="font-size: 14px;fill: #231f20;font-family: Arial-Black, Arial Black"> </text>
    <text transform="matrix(0.99, 0.14, -0.14, 0.99, 152.71, 372.64)" style="font-size: 14px;fill: #231f20;font-family: Arial-Black, Arial Black">L</text>
    <text transform="matrix(1, 0.1, -0.1, 1, 162.18, 373.89)" style="font-size: 14px;fill: #231f20;font-family: Arial-Black, Arial Black"> </text>
    <text transform="translate(167 374) rotate(4)" style="font-size: 14px;fill: #231f20;font-family: Arial-Black, Arial Black"> </text>
    <text transform="translate(172 375) rotate(3)" style="font-size: 14px;fill: #231f20;font-family: Arial-Black, Arial Black"> </text>
    <text transform="translate(177 375) rotate(1)" style="font-size: 14px;fill: #231f20;font-family: Arial-Black, Arial Black">E</text>
    <text transform="matrix(1, -0.03, 0.03, 1, 186.92, 374.98)" style="font-size: 14px;fill: #231f20;font-family: Arial-Black, Arial Black"> </text>
    <text transform="matrix(1, -0.06, 0.06, 1, 191.7, 374.82)" style="font-size: 14px;fill: #231f20;font-family: Arial-Black, Arial Black"> </text>
    <text transform="translate(196 375) rotate(-5)" style="font-size: 14px;fill: #231f20;font-family: Arial-Black, Arial Black"> </text>
    <text transform="translate(201 374) rotate(-7)" style="font-size: 14px;fill: #231f20;font-family: Arial-Black, Arial Black">C</text>
    <text transform="matrix(0.99, -0.17, 0.17, 0.99, 212.36, 372.71)" style="font-size: 14px;fill: #231f20;font-family: Arial-Black, Arial Black"> </text>
    <text transform="translate(217 372) rotate(-11)" style="font-size: 14px;fill: #231f20;font-family: Arial-Black, Arial Black"> </text>
    <text transform="translate(222 371) rotate(-13)" style="font-size: 14px;fill: #231f20;font-family: Arial-Black, Arial Black"> </text>
    <text transform="matrix(0.97, -0.26, 0.26, 0.97, 226.59, 369.93)" style="font-size: 14px;fill: #231f20;font-family: Arial-Black, Arial Black">T</text>
    <text transform="translate(237 367) rotate(-17)" style="font-size: 14px;fill: #231f20;font-family: Arial-Black, Arial Black"> </text>
    <text transform="translate(241 366) rotate(-19)" style="font-size: 14px;fill: #231f20;font-family: Arial-Black, Arial Black"> </text>
    <text transform="matrix(0.94, -0.35, 0.35, 0.94, 245.65, 364.2)" style="font-size: 14px;fill: #231f20;font-family: Arial-Black, Arial Black"> </text>
    <text transform="translate(250 363) rotate(-22)" style="font-size: 14px;fill: #231f20;font-family: Arial-Black, Arial Black">I</text>
    <text transform="matrix(0.92, -0.4, 0.4, 0.92, 255.32, 360.43)" style="font-size: 14px;fill: #231f20;font-family: Arial-Black, Arial Black"> </text>
    <text transform="translate(260 359) rotate(-25)" style="font-size: 14px;fill: #231f20;font-family: Arial-Black, Arial Black"> </text>
    <text transform="translate(264 356) rotate(-28)" style="font-size: 14px;fill: #231f20;font-family: Arial-Black, Arial Black">O</text>
    <text transform="translate(275 351) rotate(-30)" style="font-size: 14px;fill: #231f20;font-family: Arial-Black, Arial Black"> </text>
    <text transform="matrix(0.85, -0.53, 0.53, 0.85, 278.84, 348.48)" style="font-size: 14px;fill: #231f20;font-family: Arial-Black, Arial Black"> </text>
    <text transform="matrix(0.83, -0.56, 0.56, 0.83, 283.04, 345.97)" style="font-size: 14px;fill: #231f20;font-family: Arial-Black, Arial Black">N</text>
    <text transform="translate(293 339) rotate(-37)" style="font-size: 14px;fill: #231f20;font-family: Arial-Black, Arial Black"> </text>
    <text transform="translate(297 337) rotate(-40)" style="font-size: 14px;fill: #231f20;font-family: HoeflerText-Ornaments, Hoefler Text"> </text>
    <line x1="87" y1="91" x2="282" y2="286" style="fill: none;stroke: #231f20;stroke-miterlimit: 10"/>
    <line x1="283" y1="91" x2="89" y2="286" style="fill: none;stroke: #231f20;stroke-miterlimit: 10"/>
    <text transform="translate(62 215)" style="font-size: 72px;fill: #231f20;font-family: Arial-Black, Arial Black">M</text>
    <text transform="translate(155 133)" style="font-size: 72px;fill: #231f20;font-family: Arial-Black, Arial Black">C</text>
    <text transform="translate(245 215)" style="font-size: 72px;fill: #231f20;font-family: Arial-Black, Arial Black">C</text>
    <text transform="translate(159 268) scale(0.99 1)" style="font-size: 34px;fill: #231f20;font-family: Arial-Black, Arial Black">CO</text>
    <text transform="translate(155 312)" style="font-size: 47px;fill: #231f20;font-family: Arial-Black, Arial Black">17</text>
  </g>
  <path d="M54,102C2,175,7,256,63,327" transform="translate(-17 -20)" style="fill: none;stroke: #231f20;stroke-miterlimit: 10"/>
  <path d="M348,103c51,74,47,154-9,225" transform="translate(-17 -20)" style="fill: none;stroke: #231f20;stroke-miterlimit: 10"/>
</svg>
