<svg id="Layer_1" data-name="Layer 1" xmlns="http://www.w3.org/2000/svg" viewBox="0 0 367 379">
  <defs>
    <style>
      .cls-1, .cls-2 {
        font-size: 14px;
      }

      .cls-1, .cls-2, .cls-4, .cls-5, .cls-6 {
        fill: #231f20;
      }

      .cls-1, .cls-4, .cls-5, .cls-6 {
        font-family: Arial-Black, Arial Black;
      }

      .cls-2 {
        font-family: HoeflerText-Ornaments, Hoefler Text;
      }

      .cls-3 {
        fill: #231f20;
        stroke: #231f20;
        stroke-miterlimit: 10;
      }

      .cls-4 {
        font-size: 72px;
      }

      .cls-5 {
        font-size: 34px;
      }

      .cls-6 {
        font-size: 47px;
      }
    </style>
  </defs>
  <title>MCC Logo</title>
  <g>
    <!-- <text class="cls-1" transform="matrix(0.78, -0.62, 0.62, 0.78, 68.39, 54)">M</text>
    <text class="cls-1" transform="matrix(0.81, -0.58, 0.58, 0.81, 78.62, 46.05)"> </text>
    <text class="cls-1" transform="translate(82 43) rotate(-34)"> </text>
    <text class="cls-1" transform="translate(86 41) rotate(-33)"> </text>
    <text class="cls-1" transform="translate(90 38) rotate(-31)">I</text>
    <text class="cls-1" transform="matrix(0.87, -0.49, 0.49, 0.87, 94.45, 35.69)"> </text>
    <text class="cls-1" transform="matrix(0.88, -0.47, 0.47, 0.88, 98.42, 33.46)"> </text>
    <text class="cls-1" transform="matrix(0.9, -0.44, 0.44, 0.9, 102.43, 31.33)"> </text>
    <text class="cls-1" transform="translate(106 29) rotate(-24)">L</text>
    <text class="cls-1" transform="matrix(0.93, -0.37, 0.37, 0.93, 114.77, 25.6)"> </text>
    <text class="cls-1" transform="matrix(0.94, -0.35, 0.35, 0.94, 118.99, 23.9)"> </text>
    <text class="cls-1" transform="matrix(0.95, -0.33, 0.33, 0.95, 123.22, 22.31)"> </text>
    <text class="cls-1" transform="matrix(0.96, -0.29, 0.29, 0.96, 127.43, 20.81)">E</text>
    <text class="cls-1" transform="matrix(0.97, -0.25, 0.25, 0.97, 136.93, 18.02)"> </text>
    <text class="cls-1" transform="translate(141 17) rotate(-13)"> </text>
    <text class="cls-1" transform="translate(146 16) rotate(-11)"> </text>
    <text class="cls-1" transform="translate(150 15) rotate(-9)">S</text>
    <text class="cls-1" transform="translate(160 13) rotate(-7)"> </text>
    <text class="cls-1" transform="matrix(1, -0.09, 0.09, 1, 164.45, 12.93)"> </text>
    <text class="cls-1" transform="translate(169 13) rotate(-4)"> </text>
    <text class="cls-1" transform="translate(174 12) rotate(-2)"> </text>
    <text class="cls-1" transform="translate(178 12) rotate(-1)"> </text>
    <text class="cls-1" transform="translate(183 12) rotate(1)"> </text>
    <text class="cls-1" transform="translate(187 12) rotate(2)"> </text>
    <text class="cls-1" transform="translate(192 12) rotate(5)">C</text>
    <text class="cls-1" transform="translate(202 13) rotate(7)"> </text>
    <text class="cls-1" transform="translate(207 14) rotate(8)"> </text>
    <text class="cls-1" transform="matrix(0.99, 0.17, -0.17, 0.99, 211.21, 14.24)"> </text>
    <text class="cls-1" transform="translate(216 15) rotate(12)">A</text>
    <text class="cls-1" transform="matrix(0.97, 0.26, -0.26, 0.97, 226.02, 17.29)"> </text>
    <text class="cls-1" transform="matrix(0.96, 0.28, -0.28, 0.96, 230.41, 18.46)"> </text>
    <text class="cls-1" transform="translate(235 20) rotate(18)"> </text>
    <text class="cls-1" transform="translate(239 21) rotate(20)">R</text>
    <text class="cls-1" transform="translate(249 25) rotate(23)"> </text>
    <text class="cls-1" transform="matrix(0.91, 0.41, -0.41, 0.91, 253.19, 26.55)"> </text>
    <text class="cls-1" transform="translate(257 28) rotate(26)"> </text>
    <text class="cls-1" transform="translate(261 30) rotate(28)">T</text>
    <text class="cls-1" transform="matrix(0.86, 0.51, -0.51, 0.86, 270.09, 35)"> </text>
    <text class="cls-1" transform="translate(274 37) rotate(32)"> </text>
    <text class="cls-1" transform="translate(278 40) rotate(33)"> </text>
    <text class="cls-1" transform="translate(282 42) rotate(36)">E</text>
    <text class="cls-1" transform="matrix(0.79, 0.62, -0.62, 0.79, 289.66, 47.94)"> </text>
    <text class="cls-1" transform="translate(293 51) rotate(39)"> </text>
    <text class="cls-1" transform="translate(297 53) rotate(42)">R</text>
    <text class="cls-1" transform="matrix(0.86, 0.52, -0.52, 0.86, 82.27, 345.67)">C</text>
    <text class="cls-1" transform="matrix(0.88, 0.48, -0.48, 0.88, 91.82, 351.33)"> </text>
    <text class="cls-1" transform="translate(96 354) rotate(27)"> </text>
    <text class="cls-1" transform="translate(100 356) rotate(26)"> </text>
    <text class="cls-1" transform="translate(105 358) rotate(23)">O</text>
    <text class="cls-1" transform="matrix(0.94, 0.35, -0.35, 0.94, 115.68, 362.56)"> </text>
    <text class="cls-1" transform="matrix(0.95, 0.32, -0.32, 0.95, 120.17, 364.22)"> </text>
    <text class="cls-1" transform="translate(125 366) rotate(17)"> </text>
    <text class="cls-1" transform="translate(129 367) rotate(15)">L</text>
    <text class="cls-1" transform="translate(139 370) rotate(13)"> </text>
    <text class="cls-1" transform="translate(143 371) rotate(11)"> </text>
    <text class="cls-1" transform="translate(148 372) rotate(10)"> </text>
    <text class="cls-1" transform="matrix(0.99, 0.14, -0.14, 0.99, 152.71, 372.64)">L</text>
    <text class="cls-1" transform="matrix(1, 0.1, -0.1, 1, 162.18, 373.89)"> </text>
    <text class="cls-1" transform="translate(167 374) rotate(4)"> </text>
    <text class="cls-1" transform="translate(172 375) rotate(3)"> </text>
    <text class="cls-1" transform="translate(177 375) rotate(1)">E</text>
    <text class="cls-1" transform="matrix(1, -0.03, 0.03, 1, 186.92, 374.98)"> </text>
    <text class="cls-1" transform="matrix(1, -0.06, 0.06, 1, 191.7, 374.82)"> </text>
    <text class="cls-1" transform="translate(196 375) rotate(-5)"> </text>
    <text class="cls-1" transform="translate(201 374) rotate(-7)">C</text>
    <text class="cls-1" transform="matrix(0.99, -0.17, 0.17, 0.99, 212.36, 372.71)"> </text>
    <text class="cls-1" transform="translate(217 372) rotate(-11)"> </text>
    <text class="cls-1" transform="translate(222 371) rotate(-13)"> </text>
    <text class="cls-1" transform="matrix(0.97, -0.26, 0.26, 0.97, 226.59, 369.93)">T</text>
    <text class="cls-1" transform="translate(237 367) rotate(-17)"> </text>
    <text class="cls-1" transform="translate(241 366) rotate(-19)"> </text>
    <text class="cls-1" transform="matrix(0.94, -0.35, 0.35, 0.94, 245.65, 364.2)"> </text>
    <text class="cls-1" transform="translate(250 363) rotate(-22)">I</text>
    <text class="cls-1" transform="matrix(0.92, -0.4, 0.4, 0.92, 255.32, 360.43)"> </text>
    <text class="cls-1" transform="translate(260 359) rotate(-25)"> </text>
    <text class="cls-1" transform="translate(264 356) rotate(-28)">O</text>
    <text class="cls-1" transform="translate(275 351) rotate(-30)"> </text>
    <text class="cls-1" transform="matrix(0.85, -0.53, 0.53, 0.85, 278.84, 348.48)"> </text>
    <text class="cls-1" transform="matrix(0.83, -0.56, 0.56, 0.83, 283.04, 345.97)">N</text> -->
    <text class="cls-1" transform="translate(293 339) rotate(-37)"> </text>
    <text class="cls-2" transform="translate(297 337) rotate(-40)"> </text>
    <line class="cls-3" x1="87" y1="91" x2="282" y2="286"/>
    <line class="cls-3" x1="283" y1="91" x2="89" y2="286"/>
    <text class="cls-4" transform="translate(62 215)">M</text>
    <text class="cls-4" transform="translate(155 133)">C</text>
    <text class="cls-4" transform="translate(245 215)">C</text>
    <text class="cls-5" transform="translate(159 268) scale(0.99 1)">CO</text>
    <text class="cls-6" transform="translate(155 312)">17</text>
  </g>
  <path class="cls-3" d="M0,0H0" transform="translate(-17 -20)"/>
  <path class="cls-3" d="M0,0H0" transform="translate(-17 -20)"/>
</svg>
